# xmcd
#
# Track frame offsets:
#	150
#	17547
#	32086
#	46500
#	63477
#	77934
#	87949
#	96939
#	111016
#
# Disc length: 1723 seconds
#
# Revision: 0
# Processed by: cddbd v1.5.2PL0 Copyright (c) Steve Scherf et al.
# Submitted via: audiograbber 1.83.01
#
DISCID=6406b909
DTITLE=Tony Worsley - High On Love
DYEAR=1900
DGENRE=
TTITLE0=Time Out For Love
TTITLE1=True True Love
TTITLE2=They Don't Make Them Like Her Anymore
TTITLE3=I Need A Woman
TTITLE4=Baby Don't Get Hooked On Me 
TTITLE5=High On Love
TTITLE6=Hey Hey Little Girl
TTITLE7=Heartache For You
TTITLE8=Rainy Night In Georgia
EXTD=
EXTT0=
EXTT1=
EXTT2=
EXTT3=
EXTT4=
EXTT5=
EXTT6=
EXTT7=
EXTT8=
PLAYORDER=
